<svg width="1200" height="630" viewBox="0 0 1200 630" xmlns="http://www.w3.org/2000/svg"><mask id="satori_om-id"><rect x="0" y="0" width="1200" height="630" fill="#fff"/></mask><rect x="0" y="0" width="1200" height="630" fill="#0B0B0B"/><mask id="satori_om-id-0"><rect x="64" y="64" width="750" height="132" fill="#fff"/></mask><g  ><path fill="#fff" d="M100.3 87.9L91.5 87.9Q91.2 85.3 89.3 83.9Q87.3 82.5 84.0 82.5L84.0 82.5Q81.7 82.5 80.2 83.1Q78.6 83.7 77.8 84.8Q77.0 86.0 77.0 87.4L77.0 87.4Q77.0 88.5 77.5 89.4Q78.0 90.3 79 90.9Q80.0 91.5 81.2 92.0Q82.5 92.5 83.9 92.8L83.9 92.8L87.8 93.7Q90.7 94.3 93.1 95.4Q95.4 96.5 97.2 98.0Q98.9 99.6 99.9 101.7Q100.9 103.8 100.9 106.5L100.9 106.5Q100.9 110.5 98.9 113.5Q96.9 116.4 93.1 118.0Q89.3 119.6 84.0 119.6L84.0 119.6Q78.7 119.6 74.8 118.0Q70.9 116.4 68.7 113.2Q66.5 110.0 66.4 105.3L66.4 105.3L75.3 105.3Q75.5 107.5 76.6 109.0Q77.7 110.4 79.6 111.1Q81.5 111.9 83.9 111.9L83.9 111.9Q86.2 111.9 87.9 111.2Q89.7 110.5 90.6 109.3Q91.6 108.1 91.6 106.5L91.6 106.5Q91.6 105.0 90.7 104.0Q89.9 103.0 88.2 102.3Q86.6 101.6 84.2 101.1L84.2 101.1L79.4 99.9Q73.9 98.5 70.7 95.7Q67.5 92.8 67.5 88.0L67.5 88.0Q67.5 84.0 69.7 81.1Q71.8 78.1 75.5 76.4Q79.3 74.8 84.1 74.8L84.1 74.8Q88.9 74.8 92.6 76.4Q96.2 78.1 98.2 81.1Q100.2 84.0 100.3 87.9L100.3 87.9ZM121.8 119.6L121.8 119.6Q116.8 119.6 113.1 117.6Q109.5 115.5 107.6 111.7Q105.6 108.0 105.6 102.8L105.6 102.8Q105.6 97.7 107.6 93.9Q109.5 90.1 113.1 88.0Q116.6 85.8 121.5 85.8L121.5 85.8Q124.7 85.8 127.5 86.9Q130.3 87.9 132.4 90.0Q134.5 92.0 135.7 95.2Q136.8 98.3 136.8 102.5L136.8 102.5L136.8 105.0L109.2 105.0L109.2 99.3L128.3 99.3Q128.3 97.4 127.5 95.9Q126.6 94.3 125.1 93.5Q123.6 92.6 121.6 92.6L121.6 92.6Q119.5 92.6 118.0 93.6Q116.4 94.5 115.5 96.1Q114.6 97.7 114.6 99.6L114.6 99.6L114.6 105.0Q114.6 107.4 115.5 109.2Q116.4 110.9 118.0 111.9Q119.7 112.9 122.0 112.9L122.0 112.9Q123.5 112.9 124.7 112.4Q126.0 112.0 126.9 111.2Q127.8 110.3 128.3 109.1L128.3 109.1L136.7 109.6Q136.0 112.7 134.0 114.9Q132.1 117.1 129.0 118.4Q125.9 119.6 121.8 119.6ZM152.1 119.6L152.1 119.6Q149.0 119.6 146.5 118.5Q144.1 117.4 142.7 115.3Q141.2 113.1 141.2 109.9L141.2 109.9Q141.2 107.1 142.2 105.3Q143.2 103.4 145.0 102.3Q146.7 101.2 148.9 100.6Q151.1 100.0 153.5 99.8L153.5 99.8Q156.4 99.5 158.1 99.2Q159.9 99.0 160.7 98.4Q161.5 97.9 161.5 96.8L161.5 96.8L161.5 96.7Q161.5 94.7 160.2 93.6Q158.9 92.5 156.6 92.5L156.6 92.5Q154.1 92.5 152.7 93.5Q151.3 94.6 150.8 96.2L150.8 96.2L142.4 95.6Q143.0 92.6 144.9 90.4Q146.8 88.2 149.7 87.0Q152.7 85.8 156.6 85.8L156.6 85.8Q159.4 85.8 161.9 86.5Q164.4 87.1 166.3 88.5Q168.3 89.8 169.4 91.9Q170.5 94.0 170.5 96.9L170.5 96.9L170.5 119L161.9 119L161.9 114.5L161.7 114.5Q160.9 116.0 159.6 117.2Q158.2 118.3 156.4 119.0Q154.5 119.6 152.1 119.6ZM154.7 113.4L154.7 113.4Q156.7 113.4 158.2 112.6Q159.8 111.8 160.6 110.4Q161.5 109.0 161.5 107.3L161.5 107.3L161.5 103.8Q161.1 104.1 160.4 104.3Q159.6 104.6 158.7 104.7Q157.8 104.9 156.9 105.1Q156.0 105.2 155.2 105.3L155.2 105.3Q153.6 105.5 152.4 106.0Q151.2 106.6 150.6 107.4Q149.9 108.3 149.9 109.6L149.9 109.6Q149.9 111.4 151.3 112.4Q152.6 113.4 154.7 113.4ZM186.7 119L177.6 119L177.6 86.3L186.4 86.3L186.4 92.0L186.7 92.0Q187.6 88.9 189.7 87.4Q191.8 85.8 194.6 85.8L194.6 85.8Q195.3 85.8 196.1 85.9Q196.8 86.0 197.4 86.1L197.4 86.1L197.4 94.2Q196.8 94.0 195.7 93.8Q194.5 93.7 193.6 93.7L193.6 93.7Q191.6 93.7 190.0 94.6Q188.5 95.4 187.6 96.9Q186.7 98.5 186.7 100.5L186.7 100.5L186.7 119ZM215.4 119.6L215.4 119.6Q210.3 119.6 206.7 117.5Q203.1 115.4 201.2 111.5Q199.3 107.7 199.3 102.8L199.3 102.8Q199.3 97.7 201.2 93.9Q203.2 90.1 206.8 88.0Q210.4 85.8 215.3 85.8L215.3 85.8Q219.6 85.8 222.8 87.4Q226.0 89.0 227.9 91.8Q229.8 94.6 230.0 98.4L230.0 98.4L221.4 98.4Q221.1 95.9 219.5 94.4Q218.0 92.9 215.5 92.9L215.5 92.9Q213.4 92.9 211.8 94.1Q210.2 95.2 209.4 97.4Q208.5 99.5 208.5 102.6L208.5 102.6Q208.5 105.8 209.3 108.0Q210.2 110.2 211.8 111.3Q213.4 112.5 215.5 112.5L215.5 112.5Q217.0 112.5 218.3 111.8Q219.5 111.2 220.3 110.0Q221.2 108.7 221.4 107.0L221.4 107.0L230.0 107.0Q229.8 110.8 227.9 113.6Q226.1 116.4 222.9 118.0Q219.7 119.6 215.4 119.6ZM244.9 100.1L244.9 100.1L244.9 119L235.8 119L235.8 75.4L244.6 75.4L244.6 92.0L245.0 92.0Q246.1 89.1 248.6 87.5Q251.1 85.8 254.8 85.8L254.8 85.8Q258.2 85.8 260.8 87.3Q263.3 88.8 264.7 91.6Q266.1 94.3 266.1 98.2L266.1 98.2L266.1 119L257.0 119L257.0 99.8Q257.1 96.8 255.5 95.1Q254.0 93.4 251.2 93.4L251.2 93.4Q249.3 93.4 247.9 94.2Q246.5 95.0 245.7 96.5Q244.9 98.0 244.9 100.1Z M303.4 119.6L303.4 119.6Q298.4 119.6 294.8 117.5Q291.2 115.4 289.3 111.6Q287.3 107.8 287.3 102.8L287.3 102.8Q287.3 97.7 289.3 93.9Q291.2 90.1 294.8 88.0Q298.4 85.8 303.4 85.8L303.4 85.8Q308.4 85.8 312.0 88.0Q315.6 90.1 317.6 93.9Q319.5 97.7 319.5 102.8L319.5 102.8Q319.5 107.8 317.6 111.6Q315.6 115.4 312.0 117.5Q308.4 119.6 303.4 119.6ZM303.5 112.6L303.5 112.6Q305.7 112.6 307.2 111.3Q308.7 110.0 309.5 107.8Q310.3 105.6 310.3 102.7L310.3 102.7Q310.3 99.8 309.5 97.6Q308.7 95.4 307.2 94.1Q305.7 92.8 303.5 92.8L303.5 92.8Q301.2 92.8 299.6 94.1Q298.1 95.4 297.3 97.6Q296.5 99.8 296.5 102.7L296.5 102.7Q296.5 105.6 297.3 107.8Q298.1 110.0 299.6 111.3Q301.2 112.6 303.5 112.6ZM334.5 100.1L334.5 100.1L334.5 119L325.4 119L325.4 86.3L334.1 86.3L334.1 92.0L334.5 92.0Q335.6 89.2 338.1 87.5Q340.7 85.8 344.3 85.8L344.3 85.8Q347.7 85.8 350.3 87.3Q352.8 88.8 354.2 91.6Q355.6 94.3 355.6 98.2L355.6 98.2L355.6 119L346.5 119L346.5 99.8Q346.6 96.8 345 95.1Q343.4 93.4 340.7 93.4L340.7 93.4Q338.9 93.4 337.5 94.2Q336.1 95.0 335.3 96.5Q334.5 98.0 334.5 100.1Z M403.9 95.6L403.9 95.6L395.5 96.1Q395.3 95.1 394.6 94.2Q393.9 93.3 392.8 92.8Q391.6 92.3 390.1 92.3L390.1 92.3Q388.0 92.3 386.5 93.2Q385.1 94.0 385.1 95.5L385.1 95.5Q385.1 96.7 386.0 97.5Q386.9 98.3 389.2 98.8L389.2 98.8L395.1 100.0Q399.9 101.0 402.3 103.1Q404.6 105.3 404.6 108.9L404.6 108.9Q404.6 112.1 402.7 114.5Q400.8 116.9 397.6 118.3Q394.3 119.6 390.0 119.6L390.0 119.6Q383.5 119.6 379.7 116.9Q375.8 114.2 375.2 109.5L375.2 109.5L384.1 109.0Q384.5 111.0 386.1 112.1Q387.6 113.1 390.0 113.1L390.0 113.1Q392.4 113.1 393.9 112.2Q395.4 111.2 395.4 109.8L395.4 109.8Q395.4 108.5 394.3 107.7Q393.3 106.9 391.2 106.5L391.2 106.5L385.5 105.4Q380.7 104.4 378.4 102.1Q376.0 99.7 376.0 96.0L376.0 96.0Q376.0 92.9 377.8 90.6Q379.5 88.3 382.6 87.1Q385.7 85.8 389.9 85.8L389.9 85.8Q396.1 85.8 399.7 88.5Q403.3 91.1 403.9 95.6ZM408.0 86.3L427.7 86.3L427.7 93.1L408.0 93.1L408.0 86.3ZM412.5 110.1L412.5 78.4L421.6 78.4L421.6 108.9Q421.6 110.2 422.0 110.9Q422.3 111.6 423.0 111.9Q423.7 112.1 424.6 112.1L424.6 112.1Q425.3 112.1 425.9 112.0Q426.6 111.9 426.9 111.8L426.9 111.8L428.3 118.6Q427.7 118.8 426.4 119.1Q425.2 119.4 423.4 119.4L423.4 119.4Q420.1 119.6 417.7 118.6Q415.2 117.6 413.8 115.5Q412.5 113.4 412.5 110.1L412.5 110.1ZM448.2 119.6L448.2 119.6Q443.2 119.6 439.5 117.6Q435.9 115.5 433.9 111.7Q432.0 108.0 432.0 102.8L432.0 102.8Q432.0 97.7 433.9 93.9Q435.9 90.1 439.5 88.0Q443.0 85.8 447.9 85.8L447.9 85.8Q451.1 85.8 453.9 86.9Q456.7 87.9 458.8 90.0Q460.9 92.0 462.1 95.2Q463.2 98.3 463.2 102.5L463.2 102.5L463.2 105.0L435.6 105.0L435.6 99.3L454.7 99.3Q454.7 97.4 453.8 95.9Q453.0 94.3 451.5 93.5Q450.0 92.6 448.0 92.6L448.0 92.6Q445.9 92.6 444.3 93.6Q442.8 94.5 441.9 96.1Q441.0 97.7 440.9 99.6L440.9 99.6L440.9 105.0Q440.9 107.4 441.9 109.2Q442.8 110.9 444.4 111.9Q446.1 112.9 448.4 112.9L448.4 112.9Q449.9 112.9 451.1 112.4Q452.4 112.0 453.3 111.2Q454.2 110.3 454.6 109.1L454.6 109.1L463.0 109.6Q462.4 112.7 460.4 114.9Q458.5 117.1 455.4 118.4Q452.3 119.6 448.2 119.6ZM478.2 119L469.2 119L469.2 86.3L478.0 86.3L478.0 92.0L478.3 92.0Q479.2 88.9 481.3 87.4Q483.4 85.8 486.2 85.8L486.2 85.8Q486.8 85.8 487.6 85.9Q488.4 86.0 489.0 86.1L489.0 86.1L489.0 94.2Q488.4 94.0 487.2 93.8Q486.1 93.7 485.2 93.7L485.2 93.7Q483.2 93.7 481.6 94.6Q480.0 95.4 479.1 96.9Q478.2 98.5 478.2 100.5L478.2 100.5L478.2 119ZM506.9 119.6L506.9 119.6Q502.0 119.6 498.4 117.5Q494.7 115.4 492.8 111.6Q490.8 107.8 490.8 102.8L490.8 102.8Q490.8 97.7 492.8 93.9Q494.7 90.1 498.4 88.0Q502.0 85.8 506.9 85.8L506.9 85.8Q511.9 85.8 515.5 88.0Q519.1 90.1 521.1 93.9Q523.0 97.7 523.0 102.8L523.0 102.8Q523.0 107.8 521.1 111.6Q519.1 115.4 515.5 117.5Q511.9 119.6 506.9 119.6ZM507.0 112.6L507.0 112.6Q509.2 112.6 510.7 111.3Q512.3 110.0 513.0 107.8Q513.8 105.6 513.8 102.7L513.8 102.7Q513.8 99.8 513.0 97.6Q512.3 95.4 510.7 94.1Q509.2 92.8 507.0 92.8L507.0 92.8Q504.7 92.8 503.2 94.1Q501.6 95.4 500.8 97.6Q500.1 99.8 500.1 102.7L500.1 102.7Q500.1 105.6 500.8 107.8Q501.6 110.0 503.2 111.3Q504.7 112.6 507.0 112.6ZM538.0 119L529.0 119L529.0 86.3L538.0 86.3L538.0 119ZM533.5 82.1L533.5 82.1Q531.5 82.1 530.1 80.7Q528.6 79.3 528.6 77.5L528.6 77.5Q528.6 75.6 530.1 74.2Q531.5 72.9 533.5 72.9L533.5 72.9Q535.5 72.9 537.0 74.2Q538.4 75.6 538.4 77.5L538.4 77.5Q538.4 79.3 537.0 80.7Q535.5 82.1 533.5 82.1ZM557.3 119.5L557.3 119.5Q553.6 119.5 550.6 117.6Q547.6 115.7 545.8 111.9Q544.1 108.2 544.1 102.7L544.1 102.7Q544.1 97.1 545.9 93.3Q547.7 89.6 550.7 87.7Q553.7 85.8 557.3 85.8L557.3 85.8Q560.1 85.8 561.9 86.8Q563.8 87.7 564.9 89.1Q566.0 90.4 566.6 91.8L566.6 91.8L566.9 91.8L566.9 75.4L576.0 75.4L576.0 119L567.0 119L567.0 113.8L566.6 113.8Q566.0 115.1 564.8 116.5Q563.7 117.8 561.8 118.7Q560.0 119.5 557.3 119.5ZM560.2 112.3L560.2 112.3Q562.4 112.3 563.9 111.1Q565.5 109.9 566.3 107.7Q567.1 105.6 567.1 102.6L567.1 102.6Q567.1 99.7 566.3 97.6Q565.5 95.4 564.0 94.2Q562.4 93.1 560.2 93.1L560.2 93.1Q558.0 93.1 556.5 94.3Q554.9 95.5 554.1 97.7Q553.3 99.8 553.3 102.6L553.3 102.6Q553.3 105.5 554.1 107.7Q554.9 109.9 556.5 111.1Q558.0 112.3 560.2 112.3ZM610.6 95.6L610.6 95.6L602.3 96.1Q602.1 95.1 601.4 94.2Q600.7 93.3 599.6 92.8Q598.4 92.3 596.8 92.3L596.8 92.3Q594.7 92.3 593.3 93.2Q591.8 94.0 591.8 95.5L591.8 95.5Q591.8 96.7 592.8 97.5Q593.7 98.3 596.0 98.8L596.0 98.8L601.9 100.0Q606.7 101.0 609.0 103.1Q611.4 105.3 611.4 108.9L611.4 108.9Q611.4 112.1 609.5 114.5Q607.6 116.9 604.3 118.3Q601.1 119.6 596.8 119.6L596.8 119.6Q590.3 119.6 586.5 116.9Q582.6 114.2 582.0 109.5L582.0 109.5L590.9 109.0Q591.3 111.0 592.8 112.1Q594.4 113.1 596.8 113.1L596.8 113.1Q599.2 113.1 600.7 112.2Q602.1 111.2 602.2 109.8L602.2 109.8Q602.1 108.5 601.1 107.7Q600.1 106.9 598.0 106.5L598.0 106.5L592.3 105.4Q587.5 104.4 585.2 102.1Q582.8 99.7 582.8 96.0L582.8 96.0Q582.8 92.9 584.5 90.6Q586.3 88.3 589.4 87.1Q592.5 85.8 596.7 85.8L596.7 85.8Q602.9 85.8 606.5 88.5Q610.0 91.1 610.6 95.6ZM622.4 119.6L622.4 119.6Q620.3 119.6 618.8 118.1Q617.3 116.5 617.3 114.4L617.3 114.4Q617.3 112.4 618.8 110.9Q620.3 109.4 622.4 109.4L622.4 109.4Q624.5 109.4 626.0 110.9Q627.5 112.4 627.5 114.4L627.5 114.4Q627.5 115.8 626.8 117.0Q626.1 118.2 625.0 118.9Q623.8 119.6 622.4 119.6ZM622.4 96.6L622.4 96.6Q620.3 96.6 618.8 95.1Q617.3 93.6 617.3 91.5L617.3 91.5Q617.3 89.4 618.8 87.9Q620.3 86.5 622.4 86.5L622.4 86.5Q624.5 86.5 626.0 87.9Q627.5 89.4 627.5 91.5L627.5 91.5Q627.5 92.9 626.8 94.1Q626.1 95.3 625.0 95.9Q623.8 96.6 622.4 96.6Z M94.7 168.9L94.7 141.4L104.0 141.4L104.0 169.7Q104.0 174.5 101.7 178.1Q99.4 181.6 95.4 183.6Q91.3 185.6 85.9 185.6L85.9 185.6Q80.4 185.6 76.4 183.6Q72.3 181.6 70.1 178.1Q67.8 174.5 67.8 169.7L67.8 169.7L67.8 141.4L77.0 141.4L77.0 168.9Q77.0 171.4 78.1 173.3Q79.2 175.3 81.2 176.4Q83.2 177.5 85.9 177.5L85.9 177.5Q88.6 177.5 90.6 176.4Q92.6 175.3 93.6 173.3Q94.7 171.4 94.7 168.9L94.7 168.9ZM138.6 161.6L138.6 161.6L130.3 162.1Q130.1 161.1 129.4 160.2Q128.7 159.3 127.5 158.8Q126.4 158.3 124.8 158.3L124.8 158.3Q122.7 158.3 121.3 159.2Q119.8 160.0 119.8 161.5L119.8 161.5Q119.8 162.7 120.8 163.5Q121.7 164.3 124.0 164.8L124.0 164.8L129.9 166.0Q134.7 167.0 137.0 169.1Q139.4 171.3 139.4 174.9L139.4 174.9Q139.4 178.1 137.5 180.5Q135.6 182.9 132.3 184.3Q129.0 185.6 124.8 185.6L124.8 185.6Q118.3 185.6 114.4 182.9Q110.6 180.2 109.9 175.5L109.9 175.5L118.9 175.0Q119.3 177.0 120.8 178.1Q122.4 179.1 124.8 179.1L124.8 179.1Q127.2 179.1 128.7 178.2Q130.1 177.2 130.1 175.8L130.1 175.8Q130.1 174.5 129.1 173.7Q128.1 172.9 125.9 172.5L125.9 172.5L120.3 171.4Q115.5 170.4 113.1 168.1Q110.8 165.7 110.8 162.0L110.8 162.0Q110.8 158.9 112.5 156.6Q114.2 154.3 117.4 153.1Q120.5 151.8 124.7 151.8L124.7 151.8Q130.9 151.8 134.5 154.5Q138.0 157.1 138.6 161.6ZM154.2 185L145.1 185L145.1 152.3L154.2 152.3L154.2 185ZM149.7 148.1L149.7 148.1Q147.6 148.1 146.2 146.7Q144.8 145.3 144.8 143.5L144.8 143.5Q144.8 141.6 146.2 140.2Q147.6 138.9 149.7 138.9L149.7 138.9Q151.7 138.9 153.1 140.2Q154.6 141.6 154.6 143.5L154.6 143.5Q154.6 145.3 153.1 146.7Q151.7 148.1 149.7 148.1ZM170.5 166.1L170.5 166.1L170.5 185L161.4 185L161.4 152.3L170.1 152.3L170.1 158.0L170.4 158.0Q171.5 155.2 174.1 153.5Q176.6 151.8 180.3 151.8L180.3 151.8Q183.7 151.8 186.2 153.3Q188.8 154.8 190.2 157.6Q191.6 160.3 191.6 164.2L191.6 164.2L191.6 185L182.5 185L182.5 165.8Q182.5 162.8 181.0 161.1Q179.4 159.4 176.7 159.4L176.7 159.4Q174.9 159.4 173.5 160.2Q172.1 161.0 171.3 162.5Q170.5 164.0 170.5 166.1ZM213.5 198.0L213.5 198.0Q209.1 198.0 205.9 196.8Q202.8 195.5 200.9 193.5Q199.1 191.4 198.5 188.8L198.5 188.8L206.9 187.7Q207.3 188.7 208.1 189.5Q209.0 190.4 210.3 190.9Q211.7 191.4 213.7 191.4L213.7 191.4Q216.6 191.4 218.6 190.0Q220.5 188.6 220.5 185.2L220.5 185.2L220.5 179.2L220.1 179.2Q219.5 180.6 218.3 181.8Q217.1 183.0 215.3 183.8Q213.4 184.5 210.8 184.5L210.8 184.5Q207.1 184.5 204.1 182.8Q201.1 181.1 199.3 177.6Q197.5 174.0 197.5 168.6L197.5 168.6Q197.5 163.0 199.3 159.3Q201.1 155.6 204.1 153.7Q207.2 151.8 210.8 151.8L210.8 151.8Q213.5 151.8 215.4 152.8Q217.2 153.7 218.4 155.1Q219.5 156.4 220.1 157.8L220.1 157.8L220.5 157.8L220.5 152.3L229.5 152.3L229.5 185.3Q229.5 189.5 227.4 192.3Q225.4 195.1 221.8 196.5Q218.2 198.0 213.5 198.0ZM213.7 177.7L213.7 177.7Q215.9 177.7 217.4 176.6Q218.9 175.5 219.7 173.5Q220.5 171.4 220.5 168.5L220.5 168.5Q220.5 165.7 219.7 163.5Q218.9 161.4 217.4 160.2Q215.9 159.1 213.7 159.1L213.7 159.1Q211.4 159.1 209.9 160.3Q208.4 161.5 207.6 163.6Q206.8 165.7 206.8 168.5L206.8 168.5Q206.8 171.4 207.6 173.4Q208.4 175.5 209.9 176.6Q211.4 177.7 213.7 177.7Z M259.7 185L250.6 185L250.6 152.3L259.4 152.3L259.4 158.0L259.8 158.0Q260.7 154.9 262.8 153.4Q264.9 151.8 267.6 151.8L267.6 151.8Q268.3 151.8 269.1 151.9Q269.9 152.0 270.5 152.1L270.5 152.1L270.5 160.2Q269.8 160.0 268.7 159.8Q267.6 159.7 266.6 159.7L266.6 159.7Q264.6 159.7 263.1 160.6Q261.5 161.4 260.6 162.9Q259.7 164.5 259.7 166.5L259.7 166.5L259.7 185ZM288.5 185.6L288.5 185.6Q283.5 185.6 279.8 183.6Q276.2 181.5 274.3 177.7Q272.3 174.0 272.3 168.8L272.3 168.8Q272.3 163.7 274.3 159.9Q276.2 156.1 279.8 154.0Q283.3 151.8 288.2 151.8L288.2 151.8Q291.4 151.8 294.2 152.9Q297.0 153.9 299.1 156.0Q301.2 158.0 302.4 161.2Q303.5 164.3 303.5 168.5L303.5 168.5L303.5 171.0L275.9 171.0L275.9 165.3L295.0 165.3Q295.0 163.4 294.2 161.9Q293.3 160.3 291.8 159.5Q290.3 158.6 288.3 158.6L288.3 158.6Q286.2 158.6 284.7 159.6Q283.1 160.5 282.2 162.1Q281.3 163.7 281.3 165.6L281.3 165.6L281.3 171.0Q281.3 173.4 282.2 175.2Q283.1 176.9 284.7 177.9Q286.4 178.9 288.7 178.9L288.7 178.9Q290.2 178.9 291.4 178.4Q292.7 178.0 293.6 177.2Q294.5 176.3 295.0 175.1L295.0 175.1L303.4 175.6Q302.7 178.7 300.7 180.9Q298.8 183.1 295.7 184.4Q292.6 185.6 288.5 185.6ZM324.2 198.0L324.2 198.0Q319.8 198.0 316.7 196.8Q313.5 195.5 311.7 193.5Q309.8 191.4 309.3 188.8L309.3 188.8L317.7 187.7Q318.0 188.7 318.9 189.5Q319.7 190.4 321.1 190.9Q322.4 191.4 324.4 191.4L324.4 191.4Q327.4 191.4 329.3 190.0Q331.2 188.6 331.2 185.2L331.2 185.2L331.2 179.2L330.9 179.2Q330.3 180.6 329.1 181.8Q327.9 183.0 326.0 183.8Q324.1 184.5 321.5 184.5L321.5 184.5Q317.8 184.5 314.8 182.8Q311.8 181.1 310.0 177.6Q308.3 174.0 308.3 168.6L308.3 168.6Q308.3 163.0 310.1 159.3Q311.9 155.6 314.9 153.7Q317.9 151.8 321.5 151.8L321.5 151.8Q324.3 151.8 326.1 152.8Q328.0 153.7 329.1 155.1Q330.2 156.4 330.9 157.8L330.9 157.8L331.2 157.8L331.2 152.3L340.2 152.3L340.2 185.3Q340.2 189.5 338.2 192.3Q336.1 195.1 332.5 196.5Q328.9 198.0 324.2 198.0ZM324.4 177.7L324.4 177.7Q326.6 177.7 328.1 176.6Q329.6 175.5 330.5 173.5Q331.3 171.4 331.3 168.5L331.3 168.5Q331.3 165.7 330.5 163.5Q329.7 161.4 328.1 160.2Q326.6 159.1 324.4 159.1L324.4 159.1Q322.2 159.1 320.6 160.3Q319.1 161.5 318.3 163.6Q317.5 165.7 317.5 168.5L317.5 168.5Q317.5 171.4 318.3 173.4Q319.1 175.5 320.6 176.6Q322.2 177.7 324.4 177.7ZM362.4 185.6L362.4 185.6Q357.3 185.6 353.7 183.6Q350.1 181.5 348.1 177.7Q346.1 174.0 346.1 168.8L346.1 168.8Q346.1 163.7 348.1 159.9Q350.1 156.1 353.6 154.0Q357.2 151.8 362.0 151.8L362.0 151.8Q365.3 151.8 368.1 152.9Q370.9 153.9 373.0 156.0Q375.1 158.0 376.2 161.2Q377.4 164.3 377.4 168.5L377.4 168.5L377.4 171.0L349.8 171.0L349.8 165.3L368.9 165.3Q368.9 163.4 368.0 161.9Q367.1 160.3 365.6 159.5Q364.1 158.6 362.2 158.6L362.2 158.6Q360.1 158.6 358.5 159.6Q356.9 160.5 356.0 162.1Q355.1 163.7 355.1 165.6L355.1 165.6L355.1 171.0Q355.1 173.4 356.0 175.2Q356.9 176.9 358.6 177.9Q360.2 178.9 362.5 178.9L362.5 178.9Q364.0 178.9 365.3 178.4Q366.6 178.0 367.4 177.2Q368.3 176.3 368.8 175.1L368.8 175.1L377.2 175.6Q376.6 178.7 374.6 180.9Q372.6 183.1 369.5 184.4Q366.4 185.6 362.4 185.6ZM381.0 152.3L390.4 152.3L396.4 163.7L402.5 152.3L411.8 152.3L402.3 168.6L412.1 185L402.8 185L396.4 173.7L390.0 185L380.6 185L390.4 168.6L381.0 152.3Z M442.7 185L433.6 185L433.6 152.3L442.7 152.3L442.7 185ZM438.2 148.1L438.2 148.1Q436.2 148.1 434.7 146.7Q433.3 145.3 433.3 143.5L433.3 143.5Q433.3 141.6 434.7 140.2Q436.2 138.9 438.2 138.9L438.2 138.9Q440.2 138.9 441.6 140.2Q443.1 141.6 443.1 143.5L443.1 143.5Q443.1 145.3 441.6 146.7Q440.2 148.1 438.2 148.1ZM459.0 166.1L459.0 166.1L459.0 185L449.9 185L449.9 152.3L458.6 152.3L458.6 158.0L459.0 158.0Q460.1 155.2 462.6 153.5Q465.2 151.8 468.8 151.8L468.8 151.8Q472.2 151.8 474.8 153.3Q477.3 154.8 478.7 157.6Q480.1 160.3 480.1 164.2L480.1 164.2L480.1 185L471.0 185L471.0 165.8Q471.1 162.8 469.5 161.1Q467.9 159.4 465.2 159.4L465.2 159.4Q463.4 159.4 462.0 160.2Q460.6 161.0 459.8 162.5Q459.0 164.0 459.0 166.1Z M498.4 141.4L508.7 141.4L519.2 174.5L519.6 174.5L530.2 141.4L540.4 141.4L525.4 185L513.5 185L498.4 141.4ZM578.2 153.9L569.3 153.9Q569.1 151.3 567.1 149.9Q565.2 148.5 561.9 148.5L561.9 148.5Q559.6 148.5 558.1 149.1Q556.5 149.7 555.7 150.8Q554.9 152.0 554.9 153.4L554.9 153.4Q554.8 154.5 555.4 155.4Q555.9 156.3 556.9 156.9Q557.8 157.5 559.1 158.0Q560.3 158.5 561.8 158.8L561.8 158.8L565.7 159.7Q568.5 160.3 570.9 161.4Q573.3 162.5 575.1 164.0Q576.8 165.6 577.8 167.7Q578.8 169.8 578.8 172.5L578.8 172.5Q578.8 176.5 576.7 179.5Q574.7 182.4 570.9 184.0Q567.2 185.6 561.8 185.6L561.8 185.6Q556.6 185.6 552.6 184.0Q548.7 182.4 546.5 179.2Q544.4 176.0 544.3 171.3L544.3 171.3L553.2 171.3Q553.3 173.5 554.5 175.0Q555.6 176.4 557.5 177.1Q559.3 177.9 561.7 177.9L561.7 177.9Q564.1 177.9 565.8 177.2Q567.5 176.5 568.5 175.3Q569.5 174.1 569.5 172.5L569.5 172.5Q569.5 171.0 568.6 170.0Q567.7 169.0 566.1 168.3Q564.4 167.6 562.0 167.1L562.0 167.1L557.3 165.9Q551.8 164.5 548.6 161.7Q545.4 158.8 545.4 154.0L545.4 154.0Q545.4 150.0 547.5 147.1Q549.7 144.1 553.4 142.4Q557.2 140.8 561.9 140.8L561.9 140.8Q566.8 140.8 570.4 142.4Q574.1 144.1 576.1 147.1Q578.1 150.0 578.2 153.9L578.2 153.9Z M637.3 156.6L637.3 156.6L628.0 156.6Q627.7 154.8 626.9 153.4Q626.1 152.0 624.9 151.0Q623.7 150.0 622.0 149.5Q620.4 148.9 618.6 148.9L618.6 148.9Q615.2 148.9 612.7 150.6Q610.1 152.3 608.8 155.5Q607.4 158.6 607.4 163.2L607.4 163.2Q607.4 167.8 608.8 171.0Q610.2 174.2 612.7 175.8Q615.2 177.4 618.5 177.4L618.5 177.4Q620.4 177.4 621.9 176.9Q623.5 176.5 624.8 175.5Q626.0 174.6 626.8 173.2Q627.6 171.8 628.0 170.1L628.0 170.1L637.3 170.1Q636.9 173.1 635.5 175.9Q634.1 178.7 631.6 180.9Q629.2 183.1 625.9 184.3Q622.5 185.6 618.4 185.6L618.4 185.6Q612.5 185.6 607.9 183.0Q603.3 180.3 600.7 175.3Q598.0 170.3 598.0 163.2L598.0 163.2Q598.0 156.0 600.7 151.0Q603.4 146.0 608.0 143.4Q612.6 140.8 618.4 140.8L618.4 140.8Q622.1 140.8 625.4 141.8Q628.6 142.9 631.2 144.9Q633.7 147.0 635.3 149.9Q636.8 152.8 637.3 156.6ZM658.5 185.6L658.5 185.6Q653.6 185.6 650.0 183.5Q646.3 181.4 644.4 177.6Q642.4 173.8 642.4 168.8L642.4 168.8Q642.4 163.7 644.4 159.9Q646.3 156.1 650.0 154.0Q653.6 151.8 658.5 151.8L658.5 151.8Q663.5 151.8 667.1 154.0Q670.7 156.1 672.7 159.9Q674.6 163.7 674.6 168.8L674.6 168.8Q674.6 173.8 672.7 177.6Q670.7 181.4 667.1 183.5Q663.5 185.6 658.5 185.6ZM658.6 178.6L658.6 178.6Q660.8 178.6 662.4 177.3Q663.9 176.0 664.6 173.8Q665.4 171.6 665.4 168.7L665.4 168.7Q665.4 165.8 664.6 163.6Q663.9 161.4 662.4 160.1Q660.8 158.8 658.6 158.8L658.6 158.8Q656.3 158.8 654.8 160.1Q653.2 161.4 652.4 163.6Q651.7 165.8 651.7 168.7L651.7 168.7Q651.7 171.6 652.4 173.8Q653.2 176.0 654.8 177.3Q656.3 178.6 658.6 178.6ZM692.6 185.5L692.6 185.5Q688.9 185.5 685.9 183.6Q682.9 181.7 681.1 177.9Q679.4 174.2 679.4 168.7L679.4 168.7Q679.4 163.1 681.2 159.3Q683.0 155.6 686.0 153.7Q689.0 151.8 692.6 151.8L692.6 151.8Q695.4 151.8 697.2 152.8Q699.0 153.7 700.2 155.1Q701.3 156.4 701.9 157.8L701.9 157.8L702.2 157.8L702.2 141.4L711.3 141.4L711.3 185L702.3 185L702.3 179.8L701.9 179.8Q701.3 181.1 700.1 182.5Q699.0 183.8 697.1 184.7Q695.3 185.5 692.6 185.5ZM695.5 178.3L695.5 178.3Q697.7 178.3 699.2 177.1Q700.7 175.9 701.6 173.7Q702.4 171.6 702.4 168.6L702.4 168.6Q702.4 165.7 701.6 163.6Q700.8 161.4 699.2 160.2Q697.7 159.1 695.5 159.1L695.5 159.1Q693.3 159.1 691.7 160.3Q690.2 161.5 689.4 163.7Q688.6 165.8 688.6 168.6L688.6 168.6Q688.6 171.5 689.4 173.7Q690.2 175.9 691.7 177.1Q693.3 178.3 695.5 178.3ZM733.6 185.6L733.6 185.6Q728.6 185.6 724.9 183.6Q721.3 181.5 719.3 177.7Q717.4 174.0 717.4 168.8L717.4 168.8Q717.4 163.7 719.3 159.9Q721.3 156.1 724.9 154.0Q728.4 151.8 733.2 151.8L733.2 151.8Q736.5 151.8 739.3 152.9Q742.1 153.9 744.2 156.0Q746.3 158.0 747.5 161.2Q748.6 164.3 748.6 168.5L748.6 168.5L748.6 171.0L721.0 171.0L721.0 165.3L740.1 165.3Q740.1 163.4 739.2 161.9Q738.4 160.3 736.9 159.5Q735.4 158.6 733.4 158.6L733.4 158.6Q731.3 158.6 729.7 159.6Q728.1 160.5 727.3 162.1Q726.4 163.7 726.3 165.6L726.3 165.6L726.3 171.0Q726.3 173.4 727.2 175.2Q728.1 176.9 729.8 177.9Q731.5 178.9 733.8 178.9L733.8 178.9Q735.3 178.9 736.5 178.4Q737.8 178.0 738.7 177.2Q739.6 176.3 740.0 175.1L740.0 175.1L748.4 175.6Q747.8 178.7 745.8 180.9Q743.8 183.1 740.7 184.4Q737.6 185.6 733.6 185.6Z "/></g><mask id="satori_om-id-1"><rect x="64" y="532" width="1072" height="34" fill="#fff"/></mask><g opacity="0.8"></g><mask id="satori_om-id-1-0"><rect x="64" y="532" width="208" height="34" fill="#fff"/></mask><g opacity="0.8"></g><g  ><path fill="#fff" d="M77.0 547.1L77.0 547.1L74.9 547.7Q74.7 547.2 74.3 546.7Q73.9 546.2 73.2 545.9Q72.6 545.6 71.6 545.6L71.6 545.6Q70.2 545.6 69.2 546.2Q68.3 546.8 68.3 547.8L68.3 547.8Q68.3 548.7 68.9 549.2Q69.6 549.7 70.9 550.1L70.9 550.1L73.2 550.6Q75.2 551.1 76.2 552.1Q77.2 553.1 77.2 554.7L77.2 554.7Q77.2 556.1 76.5 557.1Q75.7 558.1 74.4 558.7Q73.1 559.3 71.3 559.3L71.3 559.3Q68.9 559.3 67.4 558.3Q65.9 557.3 65.5 555.3L65.5 555.3L67.7 554.8Q68.0 556.0 68.9 556.6Q69.8 557.3 71.2 557.3L71.2 557.3Q72.9 557.3 73.8 556.5Q74.8 555.8 74.8 554.9L74.8 554.9Q74.8 554.1 74.3 553.5Q73.7 553.0 72.6 552.7L72.6 552.7L70.0 552.1Q67.9 551.6 66.9 550.6Q65.9 549.5 65.9 547.9L65.9 547.9Q65.9 546.7 66.7 545.7Q67.4 544.7 68.7 544.1Q69.9 543.5 71.6 543.5L71.6 543.5Q73.8 543.5 75.1 544.5Q76.4 545.5 77.0 547.1ZM85.3 559.4L85.3 559.4Q83.8 559.4 82.6 558.8Q81.5 558.3 80.8 557.2Q80.1 556.2 80.1 554.7L80.1 554.7Q80.1 553.4 80.6 552.5Q81.1 551.7 82.0 551.2Q82.8 550.8 83.9 550.5Q84.9 550.3 86.0 550.2L86.0 550.2Q87.4 550.0 88.3 549.9Q89.1 549.8 89.5 549.6Q89.9 549.3 89.9 548.8L89.9 548.8L89.9 548.7Q89.9 547.2 89.1 546.4Q88.3 545.6 86.7 545.6L86.7 545.6Q85.0 545.6 84.1 546.3Q83.1 547.1 82.7 547.9L82.7 547.9L80.5 547.1Q81.1 545.7 82.1 544.9Q83.1 544.2 84.3 543.8Q85.5 543.5 86.6 543.5L86.6 543.5Q87.4 543.5 88.3 543.7Q89.3 543.9 90.2 544.4Q91.1 545.0 91.7 546.0Q92.3 547.1 92.3 548.9L92.3 548.9L92.3 559L89.9 559L89.9 556.9L89.8 556.9Q89.6 557.4 89.0 558.0Q88.5 558.6 87.5 559.0Q86.6 559.4 85.3 559.4ZM85.6 557.3L85.6 557.3Q87.0 557.3 88.0 556.7Q88.9 556.2 89.4 555.3Q89.9 554.4 89.9 553.5L89.9 553.5L89.9 551.3Q89.8 551.5 89.3 551.6Q88.8 551.8 88.1 551.9Q87.5 552 86.9 552.1Q86.3 552.1 85.9 552.2L85.9 552.2Q85.0 552.3 84.2 552.6Q83.4 552.8 82.9 553.4Q82.4 553.9 82.4 554.8L82.4 554.8Q82.4 556.0 83.3 556.6Q84.2 557.3 85.6 557.3ZM95.3 543.7L103.2 543.7L103.2 545.7L95.3 545.7L95.3 543.7ZM97.6 555.3L97.6 540.1L100.0 540.1L100.0 554.6Q100.0 555.6 100.2 556.1Q100.5 556.6 101.0 556.8Q101.5 556.9 102.0 556.9L102.0 556.9Q102.4 556.9 102.6 556.9Q102.9 556.8 103.0 556.8L103.0 556.8L103.5 558.9Q103.3 559.0 102.8 559.1Q102.4 559.2 101.7 559.2L101.7 559.2Q100.8 559.2 99.8 558.8Q98.9 558.3 98.2 557.5Q97.6 556.6 97.6 555.3L97.6 555.3ZM113.0 559.3L113.0 559.3Q110.8 559.3 109.2 558.3Q107.6 557.4 106.7 555.6Q105.9 553.8 105.9 551.5L105.9 551.5Q105.9 549.1 106.7 547.3Q107.6 545.5 109.1 544.5Q110.7 543.5 112.8 543.5L112.8 543.5Q114.0 543.5 115.1 543.9Q116.3 544.3 117.2 545.2Q118.2 546.1 118.8 547.6Q119.3 549.0 119.3 551.2L119.3 551.2L119.3 552.2L107.6 552.2L107.6 550.1L116.9 550.1Q116.9 548.8 116.4 547.8Q115.9 546.8 115.0 546.2Q114.0 545.6 112.8 545.6L112.8 545.6Q111.4 545.6 110.3 546.3Q109.3 547.0 108.8 548.1Q108.2 549.2 108.2 550.5L108.2 550.5L108.2 551.8Q108.2 553.6 108.8 554.8Q109.4 556.0 110.5 556.6Q111.6 557.2 113.0 557.2L113.0 557.2Q113.9 557.2 114.7 556.9Q115.4 556.7 116.0 556.2Q116.5 555.6 116.8 554.8L116.8 554.8L119.1 555.5Q118.7 556.6 117.9 557.5Q117.0 558.4 115.8 558.8Q114.6 559.3 113.0 559.3ZM122.9 560.1L122.9 543.7L125.3 543.7L125.3 560.1Q125.3 561.5 124.8 562.6Q124.3 563.6 123.3 564.2Q122.3 564.7 120.9 564.7L120.9 564.7Q120.8 564.7 120.6 564.7Q120.5 564.7 120.4 564.7L120.4 564.7L120.4 562.5Q120.5 562.5 120.6 562.5Q120.7 562.5 120.8 562.5L120.8 562.5Q121.9 562.5 122.4 561.9Q122.9 561.3 122.9 560.1L122.9 560.1ZM124.1 541.2L124.1 541.2Q123.4 541.2 122.9 540.7Q122.4 540.2 122.4 539.6L122.4 539.6Q122.4 538.9 122.9 538.5Q123.4 538 124.1 538L124.1 538Q124.7 538 125.2 538.5Q125.7 538.9 125.7 539.6L125.7 539.6Q125.7 540.2 125.2 540.7Q124.7 541.2 124.1 541.2ZM132.1 559L129.9 559L129.9 538.6L132.2 538.6L132.2 546.2L132.4 546.2Q132.7 545.8 133.1 545.1Q133.6 544.5 134.5 544.0Q135.3 543.5 136.8 543.5L136.8 543.5Q138.8 543.5 140.2 544.5Q141.7 545.5 142.5 547.2Q143.3 549.0 143.3 551.4L143.3 551.4Q143.3 553.8 142.5 555.6Q141.7 557.4 140.2 558.3Q138.8 559.3 136.9 559.3L136.9 559.3Q135.4 559.3 134.5 558.8Q133.6 558.3 133.1 557.7Q132.7 557.1 132.4 556.7L132.4 556.7L132.1 556.7L132.1 559ZM132.2 551.4L132.2 551.4Q132.2 553.1 132.7 554.4Q133.2 555.7 134.2 556.5Q135.1 557.2 136.5 557.2L136.5 557.2Q138.0 557.2 139.0 556.4Q140.0 555.6 140.5 554.3Q141.0 553.0 141.0 551.4L141.0 551.4Q141.0 549.8 140.5 548.5Q140.0 547.2 139.0 546.4Q138.0 545.6 136.5 545.6L136.5 545.6Q135.1 545.6 134.1 546.4Q133.2 547.1 132.7 548.4Q132.2 549.7 132.2 551.4ZM149.3 559L146.9 559L146.9 543.7L149.3 543.7L149.3 559ZM148.1 541.2L148.1 541.2Q147.4 541.2 146.9 540.7Q146.4 540.2 146.4 539.6L146.4 539.6Q146.4 538.9 146.9 538.5Q147.4 538 148.1 538L148.1 538Q148.8 538 149.3 538.5Q149.8 538.9 149.8 539.6L149.8 539.6Q149.8 540.2 149.3 540.7Q148.8 541.2 148.1 541.2ZM159.3 559.3L159.3 559.3Q157.4 559.3 156.0 558.3Q154.5 557.4 153.7 555.6Q152.9 553.8 152.9 551.4L152.9 551.4Q152.9 549.0 153.7 547.2Q154.5 545.5 156.0 544.5Q157.4 543.5 159.4 543.5L159.4 543.5Q160.9 543.5 161.7 544.0Q162.6 544.5 163.1 545.1Q163.5 545.8 163.8 546.2L163.8 546.2L164.0 546.2L164.0 538.6L166.3 538.6L166.3 559L164.1 559L164.1 556.7L163.8 556.7Q163.5 557.1 163.1 557.7Q162.6 558.3 161.7 558.8Q160.8 559.3 159.3 559.3ZM159.7 557.2L159.7 557.2Q161.1 557.2 162.0 556.5Q163.0 555.7 163.5 554.4Q164.0 553.1 164.0 551.4L164.0 551.4Q164.0 549.7 163.5 548.4Q163.0 547.1 162.1 546.4Q161.1 545.6 159.7 545.6L159.7 545.6Q158.2 545.6 157.2 546.4Q156.2 547.2 155.7 548.5Q155.2 549.8 155.2 551.4L155.2 551.4Q155.2 553.0 155.7 554.3Q156.2 555.6 157.2 556.4Q158.2 557.2 159.7 557.2ZM180.9 543.7L183.4 543.7L177.8 559L175.4 559L169.8 543.7L172.3 543.7L176.5 555.9L176.7 555.9L180.9 543.7ZM190.6 559.4L190.6 559.4Q189.1 559.4 187.9 558.8Q186.7 558.3 186.0 557.2Q185.3 556.2 185.3 554.7L185.3 554.7Q185.3 553.4 185.9 552.5Q186.4 551.7 187.2 551.2Q188.1 550.8 189.2 550.5Q190.2 550.3 191.3 550.2L191.3 550.2Q192.7 550.0 193.5 549.9Q194.4 549.8 194.8 549.6Q195.2 549.3 195.2 548.8L195.2 548.8L195.2 548.7Q195.2 547.2 194.4 546.4Q193.6 545.6 192.0 545.6L192.0 545.6Q190.3 545.6 189.4 546.3Q188.4 547.1 188.0 547.9L188.0 547.9L185.8 547.1Q186.4 545.7 187.4 544.9Q188.4 544.2 189.6 543.8Q190.8 543.5 191.9 543.5L191.9 543.5Q192.6 543.5 193.6 543.7Q194.6 543.9 195.5 544.4Q196.4 545.0 197.0 546.0Q197.6 547.1 197.6 548.9L197.6 548.9L197.6 559L195.2 559L195.2 556.9L195.1 556.9Q194.9 557.4 194.3 558.0Q193.7 558.6 192.8 559.0Q191.9 559.4 190.6 559.4ZM190.9 557.3L190.9 557.3Q192.3 557.3 193.3 556.7Q194.2 556.2 194.7 555.3Q195.2 554.4 195.2 553.5L195.2 553.5L195.2 551.3Q195.1 551.5 194.6 551.6Q194.1 551.8 193.4 551.9Q192.8 552 192.1 552.1Q191.5 552.1 191.2 552.2L191.2 552.2Q190.2 552.3 189.4 552.6Q188.7 552.8 188.2 553.4Q187.7 553.9 187.7 554.8L187.7 554.8Q187.7 556.0 188.6 556.6Q189.5 557.3 190.9 557.3ZM204.2 559L201.9 559L201.9 543.7L204.2 543.7L204.2 559ZM203.0 541.2L203.0 541.2Q202.4 541.2 201.9 540.7Q201.4 540.2 201.4 539.6L201.4 539.6Q201.4 538.9 201.9 538.5Q202.4 538 203.0 538L203.0 538Q203.7 538 204.2 538.5Q204.7 538.9 204.7 539.6L204.7 539.6Q204.7 540.2 204.2 540.7Q203.7 541.2 203.0 541.2ZM210.2 559.2L210.2 559.2Q209.5 559.2 208.9 558.6Q208.4 558.1 208.4 557.4L208.4 557.4Q208.4 556.6 208.9 556.1Q209.5 555.6 210.2 555.6L210.2 555.6Q210.9 555.6 211.5 556.1Q212.0 556.6 212.0 557.4L212.0 557.4Q212.0 557.9 211.8 558.3Q211.5 558.7 211.1 558.9Q210.7 559.2 210.2 559.2ZM222.4 559.3L222.4 559.3Q220.3 559.3 218.7 558.3Q217.2 557.3 216.3 555.5Q215.5 553.7 215.5 551.4L215.5 551.4Q215.5 549.1 216.4 547.3Q217.2 545.5 218.8 544.5Q220.3 543.5 222.4 543.5L222.4 543.5Q224.0 543.5 225.3 544.1Q226.6 544.7 227.4 545.8Q228.2 546.9 228.4 548.3L228.4 548.3L226.1 548.3Q225.8 547.3 224.9 546.4Q224.0 545.6 222.4 545.6L222.4 545.6Q221.0 545.6 220.0 546.3Q219.0 547.1 218.4 548.3Q217.8 549.6 217.8 551.4L217.8 551.4Q217.8 553.1 218.4 554.4Q219.0 555.8 220.0 556.5Q221.0 557.2 222.4 557.2L222.4 557.2Q223.3 557.2 224.1 556.9Q224.8 556.6 225.3 556.0Q225.9 555.4 226.1 554.5L226.1 554.5L228.4 554.5Q228.2 555.9 227.4 557.0Q226.7 558.1 225.4 558.7Q224.1 559.3 222.4 559.3ZM238.0 559.3L238.0 559.3Q236.0 559.3 234.4 558.3Q232.9 557.3 232.0 555.6Q231.1 553.8 231.1 551.4L231.1 551.4Q231.1 549.1 232.0 547.3Q232.9 545.5 234.4 544.5Q236.0 543.5 238.0 543.5L238.0 543.5Q240.1 543.5 241.7 544.5Q243.2 545.5 244.1 547.3Q245.0 549.1 245.0 551.4L245.0 551.4Q245.0 553.8 244.1 555.6Q243.2 557.3 241.7 558.3Q240.1 559.3 238.0 559.3ZM238.0 557.2L238.0 557.2Q239.6 557.2 240.6 556.4Q241.6 555.6 242.1 554.3Q242.6 553.0 242.6 551.4L242.6 551.4Q242.6 549.9 242.1 548.6Q241.6 547.3 240.6 546.5Q239.6 545.6 238.0 545.6L238.0 545.6Q236.5 545.6 235.5 546.5Q234.4 547.3 234.0 548.6Q233.5 549.9 233.5 551.4L233.5 551.4Q233.5 553.0 234.0 554.3Q234.4 555.6 235.5 556.4Q236.5 557.2 238.0 557.2ZM250.9 559L248.5 559L248.5 543.7L250.8 543.7L250.8 546.1L251.0 546.1Q251.5 544.9 252.6 544.2Q253.6 543.5 255.1 543.5L255.1 543.5Q256.6 543.5 257.6 544.2Q258.6 544.9 259.2 546.1L259.2 546.1L259.4 546.1Q260.0 544.9 261.1 544.2Q262.3 543.5 263.9 543.5L263.9 543.5Q266.0 543.5 267.3 544.8Q268.6 546.1 268.6 548.8L268.6 548.8L268.6 559L266.2 559L266.2 548.8Q266.2 547.1 265.3 546.4Q264.4 545.6 263.1 545.6L263.1 545.6Q261.5 545.6 260.6 546.6Q259.8 547.6 259.8 549.1L259.8 549.1L259.8 559L257.4 559L257.4 548.5Q257.4 547.2 256.5 546.4Q255.7 545.6 254.4 545.6L254.4 545.6Q253.4 545.6 252.6 546.1Q251.9 546.6 251.4 547.5Q250.9 548.3 250.9 549.5L250.9 549.5L250.9 559Z " opacity="0.8"/></g><mask id="satori_om-id-1-1"><rect x="1077" y="532" width="59" height="34" fill="#fff"/></mask><g opacity="0.8"></g><g  ><path fill="#fff" d="M1086.8 559L1079.5 559L1079.5 538.6L1086.6 538.6Q1088.7 538.6 1090.1 539.4Q1091.5 540.1 1092.2 541.3Q1092.8 542.6 1092.8 544.0L1092.8 544.0Q1092.8 545.4 1092.4 546.2Q1091.9 547.1 1091.2 547.6Q1090.4 548.1 1089.5 548.3L1089.5 548.3L1089.5 548.5Q1090.5 548.6 1091.4 549.2Q1092.4 549.8 1093.0 550.9Q1093.6 552.0 1093.6 553.6L1093.6 553.6Q1093.6 555.1 1092.9 556.3Q1092.2 557.6 1090.7 558.3Q1089.2 559 1086.8 559L1086.8 559ZM1081.9 549.7L1081.9 556.8L1086.8 556.8Q1089.2 556.8 1090.3 555.9Q1091.3 554.9 1091.3 553.6L1091.3 553.6Q1091.3 552.6 1090.8 551.7Q1090.2 550.8 1089.3 550.3Q1088.3 549.7 1086.9 549.7L1086.9 549.7L1081.9 549.7ZM1081.9 540.8L1081.9 547.6L1086.5 547.6Q1087.6 547.6 1088.5 547.1Q1089.4 546.7 1090.0 545.9Q1090.5 545.1 1090.5 544.0L1090.5 544.0Q1090.5 542.7 1089.5 541.8Q1088.6 540.8 1086.6 540.8L1086.6 540.8L1081.9 540.8ZM1097.4 538.6L1099.7 538.6L1099.7 559L1097.4 559L1097.4 538.6ZM1110.2 559.3L1110.2 559.3Q1108.1 559.3 1106.6 558.3Q1105.0 557.3 1104.2 555.6Q1103.3 553.8 1103.3 551.4L1103.3 551.4Q1103.3 549.1 1104.2 547.3Q1105.0 545.5 1106.6 544.5Q1108.1 543.5 1110.2 543.5L1110.2 543.5Q1112.3 543.5 1113.8 544.5Q1115.4 545.5 1116.3 547.3Q1117.1 549.1 1117.1 551.4L1117.1 551.4Q1117.1 553.8 1116.3 555.6Q1115.4 557.3 1113.8 558.3Q1112.3 559.3 1110.2 559.3ZM1110.2 557.2L1110.2 557.2Q1111.8 557.2 1112.8 556.4Q1113.8 555.6 1114.3 554.3Q1114.8 553.0 1114.8 551.4L1114.8 551.4Q1114.8 549.9 1114.3 548.6Q1113.8 547.3 1112.8 546.5Q1111.8 545.6 1110.2 545.6L1110.2 545.6Q1108.6 545.6 1107.6 546.5Q1106.6 547.3 1106.1 548.6Q1105.6 549.9 1105.6 551.4L1105.6 551.4Q1105.6 553.0 1106.1 554.3Q1106.6 555.6 1107.6 556.4Q1108.6 557.2 1110.2 557.2ZM1126.9 565.0L1126.9 565.0Q1125.2 565.0 1124.0 564.6Q1122.7 564.2 1121.9 563.5Q1121.1 562.8 1120.6 562.0L1120.6 562.0L1122.5 560.7Q1122.8 561.1 1123.3 561.6Q1123.8 562.2 1124.6 562.6Q1125.5 563.0 1126.9 563.0L1126.9 563.0Q1128.7 563.0 1129.9 562.1Q1131.1 561.2 1131.1 559.3L1131.1 559.3L1131.1 556.2L1130.9 556.2Q1130.7 556.6 1130.2 557.2Q1129.7 557.8 1128.8 558.3Q1128.0 558.8 1126.5 558.8L1126.5 558.8Q1124.6 558.8 1123.2 557.9Q1121.7 557.0 1120.8 555.3Q1120.0 553.7 1120.0 551.3L1120.0 551.3Q1120.0 548.9 1120.8 547.2Q1121.6 545.4 1123.1 544.5Q1124.6 543.5 1126.5 543.5L1126.5 543.5Q1128.0 543.5 1128.9 544.0Q1129.8 544.5 1130.2 545.1Q1130.7 545.8 1131.0 546.2L1131.0 546.2L1131.2 546.2L1131.2 543.7L1133.5 543.7L1133.5 559.4Q1133.5 561.4 1132.6 562.6Q1131.7 563.9 1130.2 564.5Q1128.7 565.0 1126.9 565.0ZM1126.8 556.7L1126.8 556.7Q1128.2 556.7 1129.2 556.0Q1130.2 555.4 1130.7 554.1Q1131.2 552.9 1131.2 551.2L1131.2 551.2Q1131.2 549.6 1130.7 548.3Q1130.2 547.1 1129.2 546.4Q1128.2 545.6 1126.8 545.6L1126.8 545.6Q1125.3 545.6 1124.3 546.4Q1123.3 547.1 1122.8 548.4Q1122.3 549.7 1122.3 551.2L1122.3 551.2Q1122.3 552.8 1122.8 554.1Q1123.3 555.3 1124.3 556.0Q1125.3 556.7 1126.8 556.7Z " opacity="0.8"/></g></svg>